<svg version="1.1" id="svg3476" viewBox="0 100.32639608099998 362.73401 413.69598384" xmlns="http://www.w3.org/2000/svg" style="max-height: 500px" width="362.73401" height="413.69598384">
  <defs id="defs3478"/>
  
  <metadata id="metadata3481">
    
      
        image/svg+xml
        
        
      
    
  </metadata>
  <g transform="translate(-193.633,-276.3622)" id="layer1">
    <g transform="translate(119,276.3622)" id="g3013">
      <polygon style="fill:#264de4" points="437.367,100.62 404.321,470.819 255.778,512 107.644,470.877 74.633,100.62" id="polygon2989"/>
      <polygon style="fill:#2965f1" points="376.03,447.246 404.27,130.894 256,130.894 256,480.523" id="polygon2991"/>
      <polygon style="fill:#ebebeb" points="150.31,268.217 154.38,313.627 256,313.627 256,268.217" id="polygon2993"/>
      <polygon style="fill:#ebebeb" points="256,176.305 255.843,176.305 142.132,176.305 146.26,221.716 256,221.716" id="polygon2995"/>
      <polygon style="fill:#ebebeb" points="256,433.399 256,386.153 255.801,386.206 205.227,372.55 201.994,336.333 177.419,336.333 156.409,336.333 162.771,407.634 255.791,433.457" id="polygon2997"/>
      <path d="m 160,0 55,0 0,23 -32,0 0,23 32,0 0,23 -55,0 z" id="path2999"/>
      <path d="m 226,0 55,0 0,20 -32,0 0,4 32,0 0,46 -55,0 0,-21 32,0 0,-4 -32,0 z" id="path3001"/>
      <path d="m 292,0 55,0 0,20 -32,0 0,4 32,0 0,46 -55,0 0,-21 32,0 0,-4 -32,0 z" id="path3003"/>
      <polygon style="fill:#ffffff" points="311.761,313.627 306.49,372.521 255.843,386.191 255.843,433.435 348.937,407.634 349.62,399.962 360.291,280.411 361.399,268.217 369.597,176.305 255.843,176.305 255.843,221.716 319.831,221.716 315.699,268.217 255.843,268.217 255.843,313.627" id="polygon3005"/>
    </g>
  </g>
</svg>